<?xml version="1.0" standalone="no"?>
<!DOCTYPE svg PUBLIC "-//W3C//DTD SVG 20010904//EN"
 "http://www.w3.org/TR/2001/REC-SVG-20010904/DTD/svg10.dtd">
<svg version="1.0" xmlns="http://www.w3.org/2000/svg"
 width="1024.000000pt" height="1024.000000pt" viewBox="0 0 1024.000000 1024.000000"
 preserveAspectRatio="xMidYMid meet">

<g transform="translate(0.000000,1024.000000) scale(0.100000,-0.100000)"
fill="#000000" stroke="none">
<path d="M0 5120 l0 -5120 2533 2 c1392 0 2456 4 2362 8 -733 32 -1428 213
-2085 545 -158 80 -382 209 -501 288 l-55 37 -27 203 c-45 335 -63 538 -82
912 l-5 110 382 0 c287 1 432 5 578 19 l196 17 99 -57 c390 -225 862 -378
1350 -436 163 -19 636 -16 797 5 1094 146 2014 747 2578 1682 244 406 394 843
467 1365 24 177 24 663 0 840 -73 522 -223 959 -467 1365 -562 932 -1493 1541
-2571 1680 -151 20 -547 30 -684 17 -55 -5 -101 -8 -103 -7 -9 7 348 396 534
581 l223 222 -97 89 c-268 248 -529 465 -754 628 -59 42 -106 81 -103 85 5 7
283 29 435 33 47 2 -1059 4 -2457 5 l-2543 2 0 -5120z m3335 4608 c-61 -123
-136 -281 -167 -353 -35 -82 -61 -129 -69 -128 -8 1 -111 26 -229 56 -118 31
-276 67 -350 82 -74 15 -143 29 -153 32 -34 9 370 239 623 354 119 54 427 178
445 179 6 0 -40 -100 -100 -222z m794 118 c226 -151 611 -446 611 -468 0 -5
-33 -44 -73 -86 -78 -83 -292 -328 -371 -427 -27 -33 -54 -59 -60 -57 -6 2
-94 41 -196 86 -102 46 -247 107 -322 137 -76 30 -138 58 -138 62 0 47 395
837 419 837 3 0 61 -38 130 -84z m-1779 -922 c123 -23 580 -131 589 -139 1 -2
-11 -46 -28 -97 -42 -128 -102 -346 -141 -510 l-32 -138 -117 0 c-126 0 -334
-12 -529 -31 -67 -6 -126 -9 -130 -5 -21 22 -18 809 4 947 l5 36 122 -19 c67
-10 183 -30 257 -44z m-845 -537 c1 -193 4 -375 8 -403 l7 -52 -115 -22 c-152
-28 -380 -82 -539 -126 -70 -19 -130 -34 -132 -32 -6 6 148 241 251 383 117
161 280 357 415 498 56 59 103 107 104 107 0 0 1 -159 1 -353z m2025 198 c167
-67 400 -169 400 -176 0 -4 -39 -21 -87 -39 -119 -45 -365 -165 -490 -239 -56
-34 -104 -61 -106 -61 -6 0 69 282 113 423 24 75 46 137 50 137 3 0 57 -20
120 -45z m-880 -993 c0 -4 -25 -32 -56 -62 -118 -115 -313 -364 -425 -542
l-54 -86 -33 161 c-27 136 -82 460 -82 486 0 8 348 39 485 44 39 2 91 4 118 5
26 1 47 -2 47 -6z m-1086 -129 c3 -16 10 -64 16 -108 25 -176 62 -368 135
-683 9 -40 15 -75 13 -76 -1 -2 -30 -18 -63 -36 -172 -96 -490 -297 -626 -396
l-45 -33 -97 167 c-159 272 -451 883 -429 896 12 6 342 113 432 140 152 44
571 144 652 155 3 1 9 -11 12 -26z m-1045 -1313 c24 -41 68 -115 98 -163 30
-49 53 -92 51 -96 -2 -5 -62 -57 -133 -118 -142 -119 -251 -219 -419 -382
l-108 -106 6 145 c15 354 90 784 203 1163 l26 88 117 -228 c64 -125 136 -262
159 -303z m1239 -80 c-57 -197 -97 -427 -126 -723 l-7 -78 -104 127 c-112 138
-301 390 -301 402 0 11 544 369 566 372 1 0 -11 -45 -28 -100z m-771 -637
c113 -154 213 -279 334 -420 l98 -114 -133 -197 c-74 -108 -173 -262 -220
-342 -48 -80 -91 -148 -95 -153 -16 -16 -480 316 -723 519 l-117 97 58 66
c143 161 673 659 703 661 4 0 47 -53 95 -117z m697 -938 c37 -216 123 -509
209 -713 34 -79 34 -83 14 -76 -69 21 -527 247 -616 303 -12 8 3 38 74 158
115 194 286 446 295 436 4 -4 15 -53 24 -108z m-1526 -153 c143 -115 277 -213
467 -340 94 -63 171 -115 173 -117 1 -1 -31 -74 -72 -162 -101 -216 -155 -344
-223 -528 -67 -179 -53 -183 -139 34 -101 251 -200 580 -253 838 -20 96 -61
329 -61 346 0 14 12 6 108 -71z m1602 -961 c69 -29 128 -56 132 -60 4 -3 3
-35 -2 -71 -20 -147 -41 -378 -52 -585 l-12 -221 -142 18 c-288 35 -534 80
-840 155 l-151 37 57 170 c104 308 184 508 300 752 l58 123 263 -133 c145 -73
320 -156 389 -185z m525 -301 c155 -216 372 -452 573 -621 l43 -37 -178 -7
c-160 -7 -571 -1 -580 9 -11 10 35 655 53 739 7 34 3 38 89 -83z m-1322 -811
c215 -48 569 -107 747 -124 129 -12 120 -5 120 -98 0 -151 26 -510 56 -761 8
-71 13 -130 11 -133 -16 -16 -427 371 -592 557 -193 219 -468 580 -441 580 3
0 48 -9 99 -21z"/>
<path d="M5255 10233 c1312 -34 2551 -568 3480 -1498 416 -416 738 -867 986
-1380 321 -665 493 -1371 512 -2100 2 -55 4 1044 5 2443 l2 2542 -2542 -2
c-1399 -1 -2498 -3 -2443 -5z"/>
<path d="M10230 4963 c0 -129 -21 -387 -44 -553 -196 -1394 -955 -2641 -2106
-3461 -825 -587 -1810 -916 -2825 -942 -55 -2 1044 -4 2443 -5 l2542 -2 0
2540 c0 1397 -2 2540 -5 2540 -3 0 -5 -53 -5 -117z"/>
</g>
</svg>
