<?xml version="1.0" encoding="UTF-8"?>
<svg xmlns="http://www.w3.org/2000/svg" xmlns:xlink="http://www.w3.org/1999/xlink" viewBox="0 0 48 48" width="48px" height="48px">
<g id="surface103767483">
<path style=" stroke:none;fill-rule:nonzero;fill:rgb(100%,100%,100%);fill-opacity:1;" d="M 40.960938 4.980469 C 40.886719 4.984375 40.8125 4.988281 40.738281 5 L 28 5 C 27.277344 4.988281 26.609375 5.367188 26.246094 5.992188 C 25.878906 6.613281 25.878906 7.386719 26.246094 8.007812 C 26.609375 8.632812 27.277344 9.011719 28 9 L 36.171875 9 L 22.585938 22.585938 C 22.0625 23.085938 21.851562 23.832031 22.035156 24.535156 C 22.21875 25.234375 22.765625 25.78125 23.464844 25.964844 C 24.167969 26.148438 24.914062 25.9375 25.414062 25.414062 L 39 11.828125 L 39 20 C 38.988281 20.722656 39.367188 21.390625 39.992188 21.753906 C 40.613281 22.121094 41.386719 22.121094 42.007812 21.753906 C 42.632812 21.390625 43.011719 20.722656 43 20 L 43 7.246094 C 43.078125 6.664062 42.898438 6.078125 42.503906 5.640625 C 42.113281 5.207031 41.546875 4.964844 40.960938 4.980469 Z M 12.5 8 C 8.382812 8 5 11.382812 5 15.5 L 5 35.5 C 5 39.617188 8.382812 43 12.5 43 L 32.5 43 C 36.617188 43 40 39.617188 40 35.5 L 40 26 C 40.011719 25.277344 39.632812 24.609375 39.007812 24.246094 C 38.386719 23.878906 37.613281 23.878906 36.992188 24.246094 C 36.367188 24.609375 35.988281 25.277344 36 26 L 36 35.5 C 36 37.445312 34.445312 39 32.5 39 L 12.5 39 C 10.554688 39 9 37.445312 9 35.5 L 9 15.5 C 9 13.554688 10.554688 12 12.5 12 L 22 12 C 22.722656 12.011719 23.390625 11.632812 23.753906 11.007812 C 24.121094 10.386719 24.121094 9.613281 23.753906 8.992188 C 23.390625 8.367188 22.722656 7.988281 22 8 Z M 12.5 8 "/>
</g>
</svg>
